<!-- icono-impacto.svg -->
<svg xmlns="http://www.w3.org/2000/svg" viewBox="0 0 64 64" width="64" height="64" fill="#0A192F">
  <circle cx="32" cy="32" r="30" stroke="#0A192F" stroke-width="2" fill="none"/>
  <path d="M32 16a4 4 0 1 1 0 8 4 4 0 0 1 0-8zm0 12c3.3 0 6 2.7 6 6v2H26v-2c0-3.3 2.7-6 6-6z" fill="#0A192F"/>
  <path d="M16 32a4 4 0 1 1 8 0 4 4 0 0 1-8 0zm0 6c3.3 0 6 2.7 6 6v2h-6c-2.2 0-4-1.8-4-4v-2c0-1.1.9-2 2-2z" fill="#0A192F"/>
  <path d="M48 32a4 4 0 1 1-8 0 4 4 0 0 1 8 0zm-8 6c0-1.1.9-2 2-2h2c3.3 0 6 2.7 6 6v2h-6v-2c0-1.1-.9-2-2-2z" fill="#0A192F"/>
</svg>